<svg width="120" height="73" viewBox="0 0 120 73" fill="none" xmlns="http://www.w3.org/2000/svg">
<g filter="url(#filter0_d_2_28)">
<path d="M64.5049 53.7529C64.1533 53.7334 63.8164 53.6602 63.4941 53.5332C63.1719 53.4062 62.8838 53.2695 62.6299 53.123C62.3369 52.9473 62.0635 52.7568 61.8096 52.5518L62.6152 50.3545C62.8398 50.5205 63.0645 50.6621 63.2891 50.7793C63.4844 50.8867 63.6846 50.9844 63.8896 51.0723C64.0947 51.1602 64.2803 51.2041 64.4463 51.2041C64.6611 51.2041 64.8369 51.1357 64.9736 50.999C65.1201 50.8623 65.1934 50.6816 65.1934 50.457C65.1934 50.1836 65.0859 49.9883 64.8711 49.8711C64.666 49.7539 64.4414 49.6953 64.1973 49.6953C63.8848 49.6953 63.6064 49.7783 63.3623 49.9443L64.3584 47.1465C63.1572 46.873 62.0439 46.4092 61.0186 45.7549C59.9932 45.1006 59.1045 44.3096 58.3525 43.3818C57.6104 42.4443 57.0293 41.3994 56.6094 40.2471C56.1895 39.0947 55.9795 37.874 55.9795 36.585C55.9795 35.5889 56.1064 34.627 56.3604 33.6992C56.624 32.7715 56.9902 31.9072 57.459 31.1064C57.9375 30.2959 58.5088 29.5586 59.1729 28.8945C59.8369 28.2305 60.5693 27.6641 61.3701 27.1953C62.1807 26.7168 63.0449 26.3506 63.9629 26.0967C64.8906 25.833 65.8525 25.7012 66.8486 25.7012C68.1475 25.7012 69.4023 25.9258 70.6133 26.375C71.8242 26.8145 72.918 27.459 73.8945 28.3086L71.668 31.9707C71.0527 31.3066 70.3252 30.7988 69.4854 30.4473C68.6455 30.0859 67.7666 29.9053 66.8486 29.9053C65.9209 29.9053 65.0518 30.0811 64.2412 30.4326C63.4307 30.7842 62.7227 31.2627 62.1172 31.8682C61.5117 32.4639 61.0332 33.1719 60.6816 33.9922C60.3301 34.8027 60.1543 35.667 60.1543 36.585C60.1543 37.5029 60.3301 38.3672 60.6816 39.1777C61.0332 39.9785 61.5117 40.6816 62.1172 41.2871C62.7227 41.8926 63.4307 42.3711 64.2412 42.7227C65.0518 43.0742 65.9209 43.25 66.8486 43.25C67.7666 43.25 68.6455 43.0742 69.4854 42.7227C70.3252 42.3613 71.0527 41.8486 71.668 41.1846L73.8945 44.8467C72.918 45.6865 71.8242 46.3311 70.6133 46.7803C69.4023 47.2295 68.1475 47.4541 66.8486 47.4541C66.7119 47.4541 66.5801 47.4492 66.4531 47.4395C66.3262 47.4297 66.1943 47.4248 66.0576 47.4248L65.8232 48.1426C66.126 48.1816 66.4141 48.2695 66.6875 48.4062C66.9609 48.543 67.1953 48.7188 67.3906 48.9336C67.5957 49.1582 67.7568 49.417 67.874 49.71C67.9912 50.0127 68.0498 50.3398 68.0498 50.6914C68.0498 51.1797 67.9668 51.6143 67.8008 51.9951C67.6348 52.376 67.4053 52.6934 67.1123 52.9473C66.8193 53.2109 66.4678 53.4111 66.0576 53.5479C65.6572 53.6846 65.2178 53.7529 64.7393 53.7529H64.5049ZM92.9082 38.6064C92.9082 39.7686 92.6885 40.8623 92.249 41.8877C91.8096 42.9033 91.209 43.792 90.4473 44.5537C89.6855 45.3057 88.792 45.9014 87.7666 46.3408C86.751 46.7803 85.6621 47 84.5 47C83.3379 47 82.2441 46.7803 81.2188 46.3408C80.2031 45.9014 79.3145 45.3057 78.5527 44.5537C77.8008 43.792 77.2051 42.9033 76.7656 41.8877C76.3262 40.8623 76.1064 39.7686 76.1064 38.6064V25.9941H80.2959V38.6064C80.2959 39.1826 80.4033 39.7246 80.6182 40.2324C80.8428 40.7402 81.1455 41.1846 81.5264 41.5654C81.9072 41.9463 82.3516 42.249 82.8594 42.4736C83.377 42.6885 83.9238 42.7959 84.5 42.7959C85.0762 42.7959 85.6182 42.6885 86.126 42.4736C86.6436 42.249 87.0928 41.9463 87.4736 41.5654C87.8545 41.1846 88.1523 40.7402 88.3672 40.2324C88.5918 39.7246 88.7041 39.1826 88.7041 38.6064V25.9941H92.9082V38.6064ZM103.938 53.7529C103.587 53.7334 103.25 53.6602 102.928 53.5332C102.605 53.4062 102.317 53.2695 102.063 53.123C101.771 52.9473 101.497 52.7568 101.243 52.5518L102.049 50.3545C102.273 50.5205 102.498 50.6621 102.723 50.7793C102.918 50.8867 103.118 50.9844 103.323 51.0723C103.528 51.1602 103.714 51.2041 103.88 51.2041C104.095 51.2041 104.271 51.1357 104.407 50.999C104.554 50.8623 104.627 50.6816 104.627 50.457C104.627 50.1836 104.52 49.9883 104.305 49.8711C104.1 49.7539 103.875 49.6953 103.631 49.6953C103.318 49.6953 103.04 49.7783 102.796 49.9443L103.792 47.1465C102.591 46.873 101.478 46.4092 100.452 45.7549C99.4268 45.1006 98.5381 44.3096 97.7861 43.3818C97.0439 42.4443 96.4629 41.3994 96.043 40.2471C95.623 39.0947 95.4131 37.874 95.4131 36.585C95.4131 35.5889 95.54 34.627 95.7939 33.6992C96.0576 32.7715 96.4238 31.9072 96.8926 31.1064C97.3711 30.2959 97.9424 29.5586 98.6064 28.8945C99.2705 28.2305 100.003 27.6641 100.804 27.1953C101.614 26.7168 102.479 26.3506 103.396 26.0967C104.324 25.833 105.286 25.7012 106.282 25.7012C107.581 25.7012 108.836 25.9258 110.047 26.375C111.258 26.8145 112.352 27.459 113.328 28.3086L111.102 31.9707C110.486 31.3066 109.759 30.7988 108.919 30.4473C108.079 30.0859 107.2 29.9053 106.282 29.9053C105.354 29.9053 104.485 30.0811 103.675 30.4326C102.864 30.7842 102.156 31.2627 101.551 31.8682C100.945 32.4639 100.467 33.1719 100.115 33.9922C99.7637 34.8027 99.5879 35.667 99.5879 36.585C99.5879 37.5029 99.7637 38.3672 100.115 39.1777C100.467 39.9785 100.945 40.6816 101.551 41.2871C102.156 41.8926 102.864 42.3711 103.675 42.7227C104.485 43.0742 105.354 43.25 106.282 43.25C107.2 43.25 108.079 43.0742 108.919 42.7227C109.759 42.3613 110.486 41.8486 111.102 41.1846L113.328 44.8467C112.352 45.6865 111.258 46.3311 110.047 46.7803C108.836 47.2295 107.581 47.4541 106.282 47.4541C106.146 47.4541 106.014 47.4492 105.887 47.4395C105.76 47.4297 105.628 47.4248 105.491 47.4248L105.257 48.1426C105.56 48.1816 105.848 48.2695 106.121 48.4062C106.395 48.543 106.629 48.7188 106.824 48.9336C107.029 49.1582 107.19 49.417 107.308 49.71C107.425 50.0127 107.483 50.3398 107.483 50.6914C107.483 51.1797 107.4 51.6143 107.234 51.9951C107.068 52.376 106.839 52.6934 106.546 52.9473C106.253 53.2109 105.901 53.4111 105.491 53.5479C105.091 53.6846 104.651 53.7529 104.173 53.7529H103.938Z" fill="black"/>
</g>
<g filter="url(#filter1_d_2_28)">
<path fill-rule="evenodd" clip-rule="evenodd" d="M26.0905 4.87838C25.4066 5.91161 24.6896 7.0145 24.4972 7.32939C24.0673 8.03293 22.5217 10.4202 19.7402 14.6756C18.5764 16.4563 17.6226 17.9902 17.6208 18.084C17.6189 18.1778 19.8343 18.2547 22.5437 18.2547H27.4698V10.6274C27.4698 6.43232 27.4393 3 27.402 3C27.3646 3 26.7744 3.84516 26.0905 4.87838ZM28.3863 10.7412V18.2547H33.4549C37.4705 18.2547 38.4795 18.1955 38.3116 17.9701C38.077 17.6555 36.9002 15.8568 35.6671 13.9288C34.1198 11.5092 30.9376 6.59784 29.2141 3.96925C28.9479 3.56306 28.6525 3.23019 28.5581 3.22928C28.4637 3.22837 28.3863 6.60877 28.3863 10.7412ZM16.0247 20.4018C15.6407 20.9566 15.3264 21.4865 15.3264 21.5791C15.3264 21.672 15.1557 21.9352 14.9472 22.1643C14.5801 22.5673 14.9989 22.5807 27.9056 22.5807H41.243L40.6379 21.6131C40.305 21.0807 39.8609 20.3642 39.651 20.0206L39.2696 19.3961L27.9963 19.3945L16.7231 19.3932L16.0247 20.4018ZM13.1586 24.8011C12.4381 25.9488 10.7893 28.4911 7.89251 32.9198C6.91714 34.4111 6.06848 35.7619 6.00684 35.9215C5.89961 36.1995 7.0663 38.0706 8.5494 39.9984C8.93456 40.4993 9.2661 40.9413 9.28603 40.9807C9.32544 41.0588 25.7837 24.7278 26.2949 24.1032C26.5886 23.7446 26.186 23.7191 20.2231 23.7196L13.8371 23.72L13.1586 24.8011ZM29.761 23.8102C29.761 23.9796 46.505 40.5676 46.6761 40.5676C46.7694 40.5676 47.5553 39.5754 48.4227 38.3628L50 36.1579L49.4666 35.2321C49.1733 34.723 47.8866 32.7183 46.6074 30.7773C45.3282 28.8363 43.7725 26.4559 43.1502 25.4873L42.019 23.7264L35.89 23.7228C32.5189 23.7207 29.761 23.7601 29.761 23.8102ZM19.0031 32.9296L9.9656 41.9123L10.867 43.2322C11.3628 43.9581 12.2362 45.1668 12.8081 45.9182C13.3797 46.6695 14.3608 48.0229 14.9879 48.9259C15.6151 49.8286 16.335 50.8532 16.5874 51.2027C17.456 52.4044 20.2529 56.3231 20.5913 56.8123C20.7776 57.0819 21.7083 58.3781 22.6592 59.693C23.6102 61.0079 24.5636 62.3398 24.7776 62.6529C24.9916 62.9659 25.7759 64.072 26.5203 65.1111L27.8737 67L28.8745 65.6148C29.4251 64.853 30.3469 63.5932 30.9229 62.8152C31.4987 62.0372 32.4782 60.6693 33.0995 59.7754C33.7207 58.8818 35.0537 57.0072 36.0619 55.6102C39.6893 50.5829 41.8098 47.6251 42.9355 46.0227C43.5656 45.1256 44.5249 43.7679 45.0672 43.0054L46.0534 41.6191L37.1637 32.7829C32.2742 27.9231 28.2213 23.9468 28.1572 23.9468C28.093 23.9468 23.9736 27.9891 19.0031 32.9296Z" fill="#CF721C"/>
</g>
<defs>
<filter id="filter0_d_2_28" x="49.9795" y="19.7012" width="69.3486" height="40.0518" filterUnits="userSpaceOnUse" color-interpolation-filters="sRGB">
<feFlood flood-opacity="0" result="BackgroundImageFix"/>
<feColorMatrix in="SourceAlpha" type="matrix" values="0 0 0 0 0 0 0 0 0 0 0 0 0 0 0 0 0 0 127 0" result="hardAlpha"/>
<feOffset/>
<feGaussianBlur stdDeviation="3"/>
<feComposite in2="hardAlpha" operator="out"/>
<feColorMatrix type="matrix" values="0 0 0 0 0 0 0 0 0 0 0 0 0 0 0 0 0 0 0.25 0"/>
<feBlend mode="normal" in2="BackgroundImageFix" result="effect1_dropShadow_2_28"/>
<feBlend mode="normal" in="SourceGraphic" in2="effect1_dropShadow_2_28" result="shape"/>
</filter>
<filter id="filter1_d_2_28" x="0" y="-3" width="56" height="76" filterUnits="userSpaceOnUse" color-interpolation-filters="sRGB">
<feFlood flood-opacity="0" result="BackgroundImageFix"/>
<feColorMatrix in="SourceAlpha" type="matrix" values="0 0 0 0 0 0 0 0 0 0 0 0 0 0 0 0 0 0 127 0" result="hardAlpha"/>
<feOffset/>
<feGaussianBlur stdDeviation="3"/>
<feComposite in2="hardAlpha" operator="out"/>
<feColorMatrix type="matrix" values="0 0 0 0 0 0 0 0 0 0 0 0 0 0 0 0 0 0 0.25 0"/>
<feBlend mode="normal" in2="BackgroundImageFix" result="effect1_dropShadow_2_28"/>
<feBlend mode="normal" in="SourceGraphic" in2="effect1_dropShadow_2_28" result="shape"/>
</filter>
</defs>
</svg>
