<svg width="56" height="69" viewBox="0 0 56 69" fill="none" xmlns="http://www.w3.org/2000/svg">
<g filter="url(#filter0_d_684_482)">
<path fill-rule="evenodd" clip-rule="evenodd" d="M26.0905 7.67293C25.4066 8.59315 24.6896 9.57541 24.4972 9.85586C24.0673 10.4824 22.5217 12.6086 19.7402 16.3986C18.5764 17.9845 17.6226 19.3506 17.6208 19.4342C17.6189 19.5177 19.8343 19.5863 22.5437 19.5863H27.4698V12.7931C27.4698 9.05691 27.4393 6 27.402 6C27.3646 6 26.7744 6.75272 26.0905 7.67293ZM28.3863 12.8945V19.5863H33.4549C37.4705 19.5863 38.4795 19.5335 38.3116 19.3328C38.077 19.0525 36.9002 17.4506 35.6671 15.7334C34.1198 13.5785 30.9376 9.20433 29.2141 6.86323C28.9479 6.50147 28.6525 6.20501 28.5581 6.2042C28.4637 6.20339 28.3863 9.21406 28.3863 12.8945ZM16.0247 21.4985C15.6407 21.9926 15.3264 22.4645 15.3264 22.547C15.3264 22.6298 15.1557 22.8642 14.9472 23.0682C14.5801 23.4271 14.9989 23.4391 27.9056 23.4391H41.243L40.6379 22.5773C40.305 22.1032 39.8609 21.465 39.651 21.159L39.2696 20.6028L27.9963 20.6014L16.7231 20.6002L16.0247 21.4985ZM13.1586 25.4166C12.4381 26.4388 10.7893 28.703 7.89251 32.6473C6.91714 33.9755 6.06848 35.1786 6.00684 35.3208C5.89961 35.5683 7.0663 37.2348 8.5494 38.9517C8.93456 39.3978 9.2661 39.7914 9.28603 39.8265C9.32544 39.8961 25.7837 25.3513 26.2949 24.7951C26.5886 24.4757 26.186 24.453 20.2231 24.4534L13.8371 24.4538L13.1586 25.4166ZM29.761 24.5341C29.761 24.6849 46.505 39.4587 46.6761 39.4587C46.7694 39.4587 47.5553 38.575 48.4227 37.495L50 35.5312L49.4666 34.7067C49.1733 34.2533 47.8866 32.4678 46.6074 30.7391C45.3282 29.0104 43.7725 26.8904 43.1502 26.0278L42.019 24.4595L35.89 24.4562C32.5189 24.4544 29.761 24.4895 29.761 24.5341ZM19.0031 32.656L9.9656 40.6563L10.867 41.8318C11.3628 42.4783 12.2362 43.5548 12.8081 44.224C13.3797 44.8932 14.3608 46.0985 14.9879 46.9027C15.6151 47.7068 16.335 48.6193 16.5874 48.9305C17.456 50.0008 20.2529 53.4908 20.5913 53.9266C20.7776 54.1667 21.7083 55.3211 22.6592 56.4922C23.6102 57.6632 24.5636 58.8495 24.7776 59.1283C24.9916 59.4072 25.7759 60.3923 26.5203 61.3177L27.8737 63L28.8745 61.7663C29.4251 61.0878 30.3469 59.9658 30.9229 59.2729C31.4987 58.58 32.4782 57.3617 33.0995 56.5656C33.7207 55.7697 35.0537 54.1002 36.0619 52.8559C39.6893 48.3786 41.8098 45.7442 42.9355 44.3171C43.5656 43.5181 44.5249 42.309 45.0672 41.6298L46.0534 40.3951L37.1637 32.5254C32.2742 28.1971 28.2213 24.6557 28.1572 24.6557C28.093 24.6557 23.9736 28.2559 19.0031 32.656Z" fill="#CF721C"/>
</g>
<defs>
<filter id="filter0_d_684_482" x="0" y="0" width="56" height="69" filterUnits="userSpaceOnUse" color-interpolation-filters="sRGB">
<feFlood flood-opacity="0" result="BackgroundImageFix"/>
<feColorMatrix in="SourceAlpha" type="matrix" values="0 0 0 0 0 0 0 0 0 0 0 0 0 0 0 0 0 0 127 0" result="hardAlpha"/>
<feOffset/>
<feGaussianBlur stdDeviation="3"/>
<feComposite in2="hardAlpha" operator="out"/>
<feColorMatrix type="matrix" values="0 0 0 0 0 0 0 0 0 0 0 0 0 0 0 0 0 0 1 0"/>
<feBlend mode="normal" in2="BackgroundImageFix" result="effect1_dropShadow_684_482"/>
<feBlend mode="normal" in="SourceGraphic" in2="effect1_dropShadow_684_482" result="shape"/>
</filter>
</defs>
</svg>
