<svg width="392" height="407" viewBox="0 0 392 407" fill="none" xmlns="http://www.w3.org/2000/svg">
<g opacity="0.7" filter="url(#filter0_d_502_384)">
<path fill-rule="evenodd" clip-rule="evenodd" d="M359.496 5.12323C347.943 7.69276 335.702 10.5226 332.291 11.4116C324.671 13.399 298.216 19.565 250.877 30.3815C231.069 34.9094 214.341 39.1319 213.707 39.7648C213.072 40.3976 227.797 55.6155 246.429 73.5797L280.305 106.242L330.87 53.7975C358.68 24.9531 381.224 1.15118 380.968 0.903552C380.711 0.655926 371.049 2.55369 359.496 5.12323ZM336.417 60.6569L286.608 112.318L321.464 145.925C349.079 172.55 356.41 178.834 356.75 176.17C357.222 172.451 361.054 152.281 365.355 130.848C370.755 103.953 381.43 49.0838 387.004 19.583C387.866 15.0248 388.041 10.7779 387.398 10.1457C386.755 9.51355 363.813 32.2431 336.417 60.6569ZM187.365 45.1191C181.046 46.3881 175.372 47.9467 174.757 48.5838C174.142 49.2225 171.223 49.9005 168.271 50.0929C163.075 50.4302 165.866 53.2996 254.624 138.876L346.343 227.308L348.597 216.642C349.837 210.775 351.533 202.904 352.367 199.15L353.884 192.327L276.37 117.57L198.854 42.8143L187.365 45.1191ZM138.491 56.3644C125.927 59.4783 97.7346 66.0268 48.4547 77.2705C31.8607 81.0575 17.0693 84.7186 15.5874 85.4073C13.007 86.6078 8.62608 107.209 6.04525 130.297C5.37325 136.295 4.7235 141.532 4.59945 141.935C4.35273 142.733 225.798 139.569 233.454 138.664C237.851 138.146 235.252 135.302 194.242 95.7687L150.323 53.4297L138.491 56.3644ZM259.233 159.632C258.11 160.796 263.288 385.872 264.465 387.006C265.106 387.625 277.089 386.013 291.093 383.427L316.557 378.724L319.026 368.822C320.384 363.377 324.825 341.061 328.896 319.234C332.967 297.407 338.049 270.724 340.19 259.939L344.085 240.331L301.961 199.668C278.792 177.303 259.565 159.287 259.233 159.632Z" fill="#CF721C"/>
</g>
<defs>
<filter id="filter0_d_502_384" x="0.599243" y="0.881836" width="391.186" height="405.257" filterUnits="userSpaceOnUse" color-interpolation-filters="sRGB">
<feFlood flood-opacity="0" result="BackgroundImageFix"/>
<feColorMatrix in="SourceAlpha" type="matrix" values="0 0 0 0 0 0 0 0 0 0 0 0 0 0 0 0 0 0 127 0" result="hardAlpha"/>
<feOffset dy="15"/>
<feGaussianBlur stdDeviation="2"/>
<feComposite in2="hardAlpha" operator="out"/>
<feColorMatrix type="matrix" values="0 0 0 0 0 0 0 0 0 0 0 0 0 0 0 0 0 0 1 0"/>
<feBlend mode="normal" in2="BackgroundImageFix" result="effect1_dropShadow_502_384"/>
<feBlend mode="normal" in="SourceGraphic" in2="effect1_dropShadow_502_384" result="shape"/>
</filter>
</defs>
</svg>
