<svg width="125" height="69" viewBox="0 0 125 69" fill="none" xmlns="http://www.w3.org/2000/svg">
<g filter="url(#filter0_d_522_240)">
<path d="M69.5049 52.3503C69.1533 52.3308 68.8164 52.2576 68.4941 52.1306C68.1719 52.0037 67.8838 51.8669 67.6299 51.7205C67.3369 51.5447 67.0635 51.3542 66.8096 51.1492L67.6152 48.9519C67.8398 49.1179 68.0645 49.2595 68.2891 49.3767C68.4844 49.4841 68.6846 49.5818 68.8896 49.6697C69.0947 49.7576 69.2803 49.8015 69.4463 49.8015C69.6611 49.8015 69.8369 49.7332 69.9736 49.5964C70.1201 49.4597 70.1934 49.2791 70.1934 49.0544C70.1934 48.781 70.0859 48.5857 69.8711 48.4685C69.666 48.3513 69.4414 48.2927 69.1973 48.2927C68.8848 48.2927 68.6064 48.3757 68.3623 48.5417L69.3584 45.7439C68.1572 45.4705 67.0439 45.0066 66.0186 44.3523C64.9932 43.698 64.1045 42.907 63.3525 41.9792C62.6104 41.0417 62.0293 39.9968 61.6094 38.8445C61.1895 37.6921 60.9795 36.4714 60.9795 35.1824C60.9795 34.1863 61.1064 33.2244 61.3604 32.2966C61.624 31.3689 61.9902 30.5046 62.459 29.7039C62.9375 28.8933 63.5088 28.156 64.1729 27.4919C64.8369 26.8279 65.5693 26.2615 66.3701 25.7927C67.1807 25.3142 68.0449 24.948 68.9629 24.6941C69.8906 24.4304 70.8525 24.2986 71.8486 24.2986C73.1475 24.2986 74.4023 24.5232 75.6133 24.9724C76.8242 25.4119 77.918 26.0564 78.8945 26.906L76.668 30.5681C76.0527 29.9041 75.3252 29.3962 74.4854 29.0447C73.6455 28.6833 72.7666 28.5027 71.8486 28.5027C70.9209 28.5027 70.0518 28.6785 69.2412 29.03C68.4307 29.3816 67.7227 29.8601 67.1172 30.4656C66.5117 31.0613 66.0332 31.7693 65.6816 32.5896C65.3301 33.4001 65.1543 34.2644 65.1543 35.1824C65.1543 36.1003 65.3301 36.9646 65.6816 37.7751C66.0332 38.5759 66.5117 39.2791 67.1172 39.8845C67.7227 40.49 68.4307 40.9685 69.2412 41.3201C70.0518 41.6716 70.9209 41.8474 71.8486 41.8474C72.7666 41.8474 73.6455 41.6716 74.4854 41.3201C75.3252 40.9587 76.0527 40.446 76.668 39.782L78.8945 43.4441C77.918 44.2839 76.8242 44.9285 75.6133 45.3777C74.4023 45.8269 73.1475 46.0515 71.8486 46.0515C71.7119 46.0515 71.5801 46.0466 71.4531 46.0369C71.3262 46.0271 71.1943 46.0222 71.0576 46.0222L70.8232 46.74C71.126 46.7791 71.4141 46.8669 71.6875 47.0037C71.9609 47.1404 72.1953 47.3162 72.3906 47.531C72.5957 47.7556 72.7568 48.0144 72.874 48.3074C72.9912 48.6101 73.0498 48.9373 73.0498 49.2888C73.0498 49.7771 72.9668 50.2117 72.8008 50.5925C72.6348 50.9734 72.4053 51.2908 72.1123 51.5447C71.8193 51.8083 71.4678 52.0085 71.0576 52.1453C70.6572 52.282 70.2178 52.3503 69.7393 52.3503H69.5049ZM97.9082 37.2039C97.9082 38.366 97.6885 39.4597 97.249 40.4851C96.8096 41.5007 96.209 42.3894 95.4473 43.1511C94.6855 43.9031 93.792 44.4988 92.7666 44.9382C91.751 45.3777 90.6621 45.5974 89.5 45.5974C88.3379 45.5974 87.2441 45.3777 86.2188 44.9382C85.2031 44.4988 84.3145 43.9031 83.5527 43.1511C82.8008 42.3894 82.2051 41.5007 81.7656 40.4851C81.3262 39.4597 81.1064 38.366 81.1064 37.2039V24.5916H85.2959V37.2039C85.2959 37.78 85.4033 38.322 85.6182 38.8298C85.8428 39.3376 86.1455 39.782 86.5264 40.1628C86.9072 40.5437 87.3516 40.8464 87.8594 41.071C88.377 41.2859 88.9238 41.3933 89.5 41.3933C90.0762 41.3933 90.6182 41.2859 91.126 41.071C91.6436 40.8464 92.0928 40.5437 92.4736 40.1628C92.8545 39.782 93.1523 39.3376 93.3672 38.8298C93.5918 38.322 93.7041 37.78 93.7041 37.2039V24.5916H97.9082V37.2039ZM108.938 52.3503C108.587 52.3308 108.25 52.2576 107.928 52.1306C107.605 52.0037 107.317 51.8669 107.063 51.7205C106.771 51.5447 106.497 51.3542 106.243 51.1492L107.049 48.9519C107.273 49.1179 107.498 49.2595 107.723 49.3767C107.918 49.4841 108.118 49.5818 108.323 49.6697C108.528 49.7576 108.714 49.8015 108.88 49.8015C109.095 49.8015 109.271 49.7332 109.407 49.5964C109.554 49.4597 109.627 49.2791 109.627 49.0544C109.627 48.781 109.52 48.5857 109.305 48.4685C109.1 48.3513 108.875 48.2927 108.631 48.2927C108.318 48.2927 108.04 48.3757 107.796 48.5417L108.792 45.7439C107.591 45.4705 106.478 45.0066 105.452 44.3523C104.427 43.698 103.538 42.907 102.786 41.9792C102.044 41.0417 101.463 39.9968 101.043 38.8445C100.623 37.6921 100.413 36.4714 100.413 35.1824C100.413 34.1863 100.54 33.2244 100.794 32.2966C101.058 31.3689 101.424 30.5046 101.893 29.7039C102.371 28.8933 102.942 28.156 103.606 27.4919C104.271 26.8279 105.003 26.2615 105.804 25.7927C106.614 25.3142 107.479 24.948 108.396 24.6941C109.324 24.4304 110.286 24.2986 111.282 24.2986C112.581 24.2986 113.836 24.5232 115.047 24.9724C116.258 25.4119 117.352 26.0564 118.328 26.906L116.102 30.5681C115.486 29.9041 114.759 29.3962 113.919 29.0447C113.079 28.6833 112.2 28.5027 111.282 28.5027C110.354 28.5027 109.485 28.6785 108.675 29.03C107.864 29.3816 107.156 29.8601 106.551 30.4656C105.945 31.0613 105.467 31.7693 105.115 32.5896C104.764 33.4001 104.588 34.2644 104.588 35.1824C104.588 36.1003 104.764 36.9646 105.115 37.7751C105.467 38.5759 105.945 39.2791 106.551 39.8845C107.156 40.49 107.864 40.9685 108.675 41.3201C109.485 41.6716 110.354 41.8474 111.282 41.8474C112.2 41.8474 113.079 41.6716 113.919 41.3201C114.759 40.9587 115.486 40.446 116.102 39.782L118.328 43.4441C117.352 44.2839 116.258 44.9285 115.047 45.3777C113.836 45.8269 112.581 46.0515 111.282 46.0515C111.146 46.0515 111.014 46.0466 110.887 46.0369C110.76 46.0271 110.628 46.0222 110.491 46.0222L110.257 46.74C110.56 46.7791 110.848 46.8669 111.121 47.0037C111.395 47.1404 111.629 47.3162 111.824 47.531C112.029 47.7556 112.19 48.0144 112.308 48.3074C112.425 48.6101 112.483 48.9373 112.483 49.2888C112.483 49.7771 112.4 50.2117 112.234 50.5925C112.068 50.9734 111.839 51.2908 111.546 51.5447C111.253 51.8083 110.901 52.0085 110.491 52.1453C110.091 52.282 109.651 52.3503 109.173 52.3503H108.938Z" fill="white"/>
</g>
<g filter="url(#filter1_d_522_240)">
<path fill-rule="evenodd" clip-rule="evenodd" d="M26.0905 7.67293C25.4066 8.59315 24.6896 9.57541 24.4972 9.85586C24.0673 10.4824 22.5217 12.6086 19.7402 16.3986C18.5764 17.9845 17.6226 19.3506 17.6208 19.4342C17.6189 19.5177 19.8343 19.5863 22.5437 19.5863H27.4698V12.7931C27.4698 9.05691 27.4393 6 27.402 6C27.3646 6 26.7744 6.75272 26.0905 7.67293ZM28.3863 12.8945V19.5863H33.4549C37.4705 19.5863 38.4795 19.5335 38.3116 19.3328C38.077 19.0525 36.9002 17.4506 35.6671 15.7334C34.1198 13.5785 30.9376 9.20433 29.2141 6.86323C28.9479 6.50147 28.6525 6.20501 28.5581 6.2042C28.4637 6.20339 28.3863 9.21406 28.3863 12.8945ZM16.0247 21.4985C15.6407 21.9926 15.3264 22.4645 15.3264 22.547C15.3264 22.6298 15.1557 22.8642 14.9472 23.0682C14.5801 23.4271 14.9989 23.4391 27.9056 23.4391H41.243L40.6379 22.5773C40.305 22.1032 39.8609 21.465 39.651 21.159L39.2696 20.6028L27.9963 20.6014L16.7231 20.6002L16.0247 21.4985ZM13.1586 25.4166C12.4381 26.4388 10.7893 28.703 7.89251 32.6473C6.91714 33.9755 6.06848 35.1786 6.00684 35.3208C5.89961 35.5683 7.0663 37.2348 8.5494 38.9517C8.93456 39.3978 9.2661 39.7914 9.28603 39.8265C9.32544 39.8961 25.7837 25.3513 26.2949 24.7951C26.5886 24.4757 26.186 24.453 20.2231 24.4534L13.8371 24.4538L13.1586 25.4166ZM29.761 24.5341C29.761 24.6849 46.505 39.4587 46.6761 39.4587C46.7694 39.4587 47.5553 38.575 48.4227 37.495L50 35.5312L49.4666 34.7067C49.1733 34.2533 47.8866 32.4678 46.6074 30.7391C45.3282 29.0104 43.7725 26.8904 43.1502 26.0278L42.019 24.4595L35.89 24.4562C32.5189 24.4544 29.761 24.4895 29.761 24.5341ZM19.0031 32.656L9.9656 40.6563L10.867 41.8318C11.3628 42.4783 12.2362 43.5548 12.8081 44.224C13.3797 44.8932 14.3608 46.0985 14.9879 46.9027C15.6151 47.7068 16.335 48.6193 16.5874 48.9305C17.456 50.0008 20.2529 53.4908 20.5913 53.9266C20.7776 54.1667 21.7083 55.3211 22.6592 56.4922C23.6102 57.6632 24.5636 58.8495 24.7776 59.1283C24.9916 59.4072 25.7759 60.3923 26.5203 61.3177L27.8737 63L28.8745 61.7663C29.4251 61.0878 30.3469 59.9658 30.9229 59.2729C31.4987 58.58 32.4782 57.3617 33.0995 56.5656C33.7207 55.7697 35.0537 54.1002 36.0619 52.8559C39.6893 48.3786 41.8098 45.7442 42.9355 44.3171C43.5656 43.5181 44.5249 42.309 45.0672 41.6298L46.0534 40.3951L37.1637 32.5254C32.2742 28.1971 28.2213 24.6557 28.1572 24.6557C28.093 24.6557 23.9736 28.2559 19.0031 32.656Z" fill="#CF721C"/>
</g>
<defs>
<filter id="filter0_d_522_240" x="54.9795" y="18.2986" width="69.3486" height="40.0518" filterUnits="userSpaceOnUse" color-interpolation-filters="sRGB">
<feFlood flood-opacity="0" result="BackgroundImageFix"/>
<feColorMatrix in="SourceAlpha" type="matrix" values="0 0 0 0 0 0 0 0 0 0 0 0 0 0 0 0 0 0 127 0" result="hardAlpha"/>
<feOffset/>
<feGaussianBlur stdDeviation="3"/>
<feComposite in2="hardAlpha" operator="out"/>
<feColorMatrix type="matrix" values="0 0 0 0 0 0 0 0 0 0 0 0 0 0 0 0 0 0 1 0"/>
<feBlend mode="normal" in2="BackgroundImageFix" result="effect1_dropShadow_522_240"/>
<feBlend mode="normal" in="SourceGraphic" in2="effect1_dropShadow_522_240" result="shape"/>
</filter>
<filter id="filter1_d_522_240" x="0" y="0" width="56" height="69" filterUnits="userSpaceOnUse" color-interpolation-filters="sRGB">
<feFlood flood-opacity="0" result="BackgroundImageFix"/>
<feColorMatrix in="SourceAlpha" type="matrix" values="0 0 0 0 0 0 0 0 0 0 0 0 0 0 0 0 0 0 127 0" result="hardAlpha"/>
<feOffset/>
<feGaussianBlur stdDeviation="3"/>
<feComposite in2="hardAlpha" operator="out"/>
<feColorMatrix type="matrix" values="0 0 0 0 0 0 0 0 0 0 0 0 0 0 0 0 0 0 1 0"/>
<feBlend mode="normal" in2="BackgroundImageFix" result="effect1_dropShadow_522_240"/>
<feBlend mode="normal" in="SourceGraphic" in2="effect1_dropShadow_522_240" result="shape"/>
</filter>
</defs>
</svg>
